<?xml version="1.0" standalone="no"?>
<!DOCTYPE svg PUBLIC "-//W3C//DTD SVG 20010904//EN"
 "http://www.w3.org/TR/2001/REC-SVG-20010904/DTD/svg10.dtd">
<svg version="1.0" xmlns="http://www.w3.org/2000/svg"
 width="395.000000pt" height="395.000000pt" viewBox="0 0 395.000000 395.000000"
 preserveAspectRatio="xMidYMid meet">
<metadata>
Created by potrace 1.11, written by Peter Selinger 2001-2013
</metadata>
<g transform="translate(0.000000,395.000000) scale(0.100000,-0.100000)"
fill="#000000" stroke="none">
<path d="M1705 3821 c-45 -11 -93 -39 -105 -60 -16 -32 -12 -89 11 -134 29
-56 127 -152 221 -215 111 -75 150 -116 146 -155 -2 -22 -11 -36 -29 -46 -42
-23 -82 0 -196 115 -150 151 -275 233 -443 295 -290 106 -580 86 -875 -61
-255 -126 -369 -274 -352 -458 7 -73 48 -170 99 -234 81 -103 229 -195 379
-237 170 -47 309 -37 669 49 361 86 457 91 540 28 53 -41 66 -114 30 -160 -37
-47 -87 -59 -308 -69 -478 -21 -784 -148 -1068 -440 -145 -149 -230 -297 -279
-483 -108 -416 -8 -823 274 -1119 128 -135 294 -232 491 -288 96 -27 334 -37
448 -20 381 59 721 303 891 639 70 138 136 399 147 582 7 97 -9 361 -27 483
-13 80 -3 113 43 152 23 19 41 25 78 25 42 0 54 -5 83 -33 61 -62 68 -129 42
-443 -21 -262 -3 -430 70 -651 81 -243 218 -440 377 -540 223 -141 482 -73
618 162 42 73 87 216 101 320 23 173 -6 406 -71 573 -89 231 -250 453 -424
585 -151 115 -196 165 -196 221 0 32 34 56 65 47 13 -3 82 -62 152 -131 139
-136 237 -208 322 -236 48 -15 58 -16 94 -3 74 26 97 123 61 263 -20 81 -103
253 -158 330 -59 82 -210 225 -272 256 -45 23 -59 25 -190 25 -152 0 -174 7
-174 51 0 23 36 57 52 48 17 -11 119 27 153 57 45 40 46 80 4 169 -87 185
-335 370 -495 370 -44 0 -59 -5 -78 -23 -25 -25 -46 -101 -46 -167 0 -39 -20
-70 -45 -70 -7 0 -23 9 -36 19 -22 17 -24 28 -29 138 -6 141 -6 141 -129 264
-102 102 -196 155 -347 194 -97 25 -222 32 -289 16z"/>
</g>
</svg>
