<?xml version="1.0" encoding="utf-8"?>
<!-- Generator: Adobe Illustrator 19.1.0, SVG Export Plug-In . SVG Version: 6.00 Build 0)  -->
<svg version="1.1" id="Layer_1" xmlns="http://www.w3.org/2000/svg" xmlns:xlink="http://www.w3.org/1999/xlink" x="0px" y="0px"
	 viewBox="0 0 485.6 299.5" style="enable-background:new 0 0 485.6 299.5;" xml:space="preserve">
<style type="text/css">
	.st0{clip-path:url(#SVGID_2_);}
	.st1{clip-path:url(#SVGID_4_);fill:#F2F2F2;}
	.st2{clip-path:url(#SVGID_4_);fill:#E6B73A;}
	.st3{clip-path:url(#SVGID_4_);fill:#BE0024;}
	.st4{opacity:0.7;clip-path:url(#SVGID_4_);}
	.st5{clip-path:url(#SVGID_6_);fill:#E6B73A;}
	.st6{opacity:0.5;clip-path:url(#SVGID_4_);}
	.st7{clip-path:url(#SVGID_8_);fill:#BE0024;}
</style>
<g>
	<defs>
		<rect id="SVGID_1_" width="485.6" height="299.5"/>
	</defs>
	<clipPath id="SVGID_2_">
		<use xlink:href="#SVGID_1_"  style="overflow:visible;"/>
	</clipPath>
	<g class="st0">
		<defs>
			<rect id="SVGID_3_" width="485.6" height="299.5"/>
		</defs>
		<clipPath id="SVGID_4_">
			<use xlink:href="#SVGID_3_"  style="overflow:visible;"/>
		</clipPath>
		<path class="st1" d="M459.9,299.5H25.7C11.6,299.5,0,287.9,0,273.8V25.7C0,11.6,11.6,0,25.7,0h434.2c14.1,0,25.7,11.6,25.7,25.7
			v248.1C485.6,287.9,474,299.5,459.9,299.5"/>
		<polygon class="st2" points="366.4,145.8 366.2,142.1 365.7,138.4 365,134.7 364.2,131.2 363.2,127.7 362,124.2 360.7,120.9 
			359.2,117.6 357.6,114.4 355.8,111.3 353.9,108.3 351.8,105.4 349.6,102.6 347.3,99.9 344.8,97.4 342.2,94.9 339.5,92.6 
			336.7,90.4 333.8,88.3 330.8,86.4 327.7,84.6 324.5,83 321.2,81.5 317.8,80.2 314.4,79 310.9,78 307.3,77.2 303.6,76.5 
			299.9,76.1 296.2,75.8 292.3,75.7 288.5,75.8 284.8,76.1 281.1,76.5 277.4,77.2 273.8,78 270.3,79 266.9,80.2 263.5,81.5 
			260.3,83 257.1,84.6 254,86.4 251,88.3 248.1,90.4 245.3,92.6 242.8,94.8 243,94.9 245.5,97.4 248,99.9 250.3,102.6 252.5,105.4 
			254.6,108.3 256.5,111.3 258.3,114.4 259.9,117.6 261.4,120.9 262.7,124.2 263.8,127.7 264.8,131.2 265.7,134.7 266.3,138.4 
			266.8,142.1 267.1,145.8 267.2,149.6 267.1,153.4 266.8,157.2 266.3,160.9 265.7,164.6 264.8,168.1 263.8,171.7 262.7,175.1 
			261.4,178.5 259.9,181.8 258.3,185 256.5,188.1 254.6,191.1 252.5,194 250.3,196.8 248,199.5 245.5,202.1 243,204.5 242.8,204.7 
			245.3,206.9 248.1,209.1 251,211.1 254,213.1 257.1,214.9 260.3,216.5 263.5,218 266.9,219.3 270.3,220.5 273.8,221.5 
			277.4,222.3 281.1,223 284.8,223.4 288.5,223.7 292.3,223.8 296.2,223.7 299.9,223.4 303.6,223 307.3,222.3 310.9,221.5 
			314.4,220.5 317.8,219.3 321.2,218 324.5,216.5 327.7,214.9 330.8,213.1 333.8,211.1 336.7,209.1 339.5,206.9 342.2,204.5 
			344.8,202.1 347.3,199.5 349.6,196.8 351.8,194 353.9,191.1 355.8,188.1 357.6,185 359.2,181.8 360.7,178.5 362,175.1 
			363.2,171.7 364.2,168.1 365,164.6 365.7,160.9 366.2,157.2 366.4,153.4 366.5,149.6 		"/>
		<polygon class="st3" points="240,202.1 237.6,199.5 235.3,196.8 233.1,194 231,191.1 229.1,188.1 227.3,185 225.7,181.8 
			224.2,178.5 222.9,175.1 221.7,171.7 220.7,168.1 219.9,164.6 219.3,160.9 218.8,157.2 218.5,153.4 218.4,149.6 218.5,145.8 
			218.8,142.1 219.3,138.4 219.9,134.7 220.7,131.2 221.7,127.7 222.9,124.2 224.2,120.9 225.7,117.6 227.3,114.4 229.1,111.3 
			231,108.3 233.1,105.4 235.3,102.6 237.6,99.9 240,97.4 242.6,94.9 242.8,94.8 240.3,92.6 237.5,90.4 234.6,88.3 231.6,86.4 
			228.5,84.6 225.3,83 222.1,81.5 218.7,80.2 215.3,79 211.7,78 208.2,77.2 204.5,76.5 200.8,76.1 197,75.8 193.2,75.7 189.4,75.8 
			185.7,76.1 182,76.5 178.3,77.2 174.7,78 171.2,79 167.7,80.2 164.4,81.5 161.1,83 157.9,84.6 154.8,86.4 151.8,88.3 148.9,90.4 
			146.1,92.6 143.4,94.9 140.8,97.4 138.3,99.9 136,102.6 133.8,105.4 131.7,108.3 129.8,111.3 128,114.4 126.4,117.6 124.9,120.9 
			123.5,124.2 122.4,127.7 121.4,131.2 120.5,134.7 119.9,138.4 119.4,142.1 119.1,145.8 119.1,149.6 119.1,153.4 119.4,157.2 
			119.9,160.9 120.5,164.6 121.4,168.1 122.4,171.7 123.5,175.1 124.9,178.5 126.4,181.8 128,185 129.8,188.1 131.7,191.1 
			133.8,194 136,196.8 138.3,199.5 140.8,202.1 143.4,204.5 146.1,206.9 148.9,209.1 151.8,211.1 154.8,213.1 157.9,214.9 
			161.1,216.5 164.4,218 167.7,219.3 171.2,220.5 174.7,221.5 178.3,222.3 182,223 185.7,223.4 189.4,223.7 193.2,223.8 197,223.7 
			200.8,223.4 204.5,223 208.2,222.3 211.7,221.5 215.3,220.5 218.7,219.3 222.1,218 225.3,216.5 228.5,214.9 231.6,213.1 
			234.6,211.1 237.5,209.1 240.3,206.9 242.8,204.7 242.6,204.5 		"/>
		<g class="st4">
			<g>
				<defs>
					<rect id="SVGID_5_" x="218.4" y="94.8" width="48.8" height="109.9"/>
				</defs>
				<clipPath id="SVGID_6_">
					<use xlink:href="#SVGID_5_"  style="overflow:visible;"/>
				</clipPath>
				<polygon class="st5" points="245.5,202.1 248,199.5 250.3,196.8 252.5,194 254.6,191.1 256.5,188.1 258.3,185 259.9,181.8 
					261.4,178.5 262.7,175.1 263.8,171.7 264.8,168.1 265.7,164.6 266.3,160.9 266.8,157.2 267.1,153.4 267.2,149.6 267.1,145.8 
					266.8,142.1 266.3,138.4 265.7,134.7 264.8,131.2 263.8,127.7 262.7,124.2 261.4,120.9 259.9,117.6 258.3,114.4 256.5,111.3 
					254.6,108.3 252.5,105.4 250.3,102.6 248,99.9 245.5,97.4 243,94.9 242.8,94.8 242.6,94.9 240,97.4 237.6,99.9 235.3,102.6 
					233.1,105.4 231,108.3 229.1,111.3 227.3,114.4 225.7,117.6 224.2,120.9 222.9,124.2 221.7,127.7 220.7,131.2 219.9,134.7 
					219.3,138.4 218.8,142.1 218.5,145.8 218.4,149.6 218.5,153.4 218.8,157.2 219.3,160.9 219.9,164.6 220.7,168.1 221.7,171.7 
					222.9,175.1 224.2,178.5 225.7,181.8 227.3,185 229.1,188.1 231,191.1 233.1,194 235.3,196.8 237.6,199.5 240,202.1 
					242.6,204.5 242.8,204.7 243,204.5 				"/>
			</g>
		</g>
		<g class="st6">
			<g>
				<defs>
					<rect id="SVGID_7_" x="218.4" y="94.8" width="48.8" height="109.9"/>
				</defs>
				<clipPath id="SVGID_8_">
					<use xlink:href="#SVGID_7_"  style="overflow:visible;"/>
				</clipPath>
				<polygon class="st7" points="245.5,202.1 248,199.5 250.3,196.8 252.5,194 254.6,191.1 256.5,188.1 258.3,185 259.9,181.8 
					261.4,178.5 262.7,175.1 263.8,171.7 264.8,168.1 265.7,164.6 266.3,160.9 266.8,157.2 267.1,153.4 267.2,149.6 267.1,145.8 
					266.8,142.1 266.3,138.4 265.7,134.7 264.8,131.2 263.8,127.7 262.7,124.2 261.4,120.9 259.9,117.6 258.3,114.4 256.5,111.3 
					254.6,108.3 252.5,105.4 250.3,102.6 248,99.9 245.5,97.4 243,94.9 242.8,94.8 242.6,94.9 240,97.4 237.6,99.9 235.3,102.6 
					233.1,105.4 231,108.3 229.1,111.3 227.3,114.4 225.7,117.6 224.2,120.9 222.9,124.2 221.7,127.7 220.7,131.2 219.9,134.7 
					219.3,138.4 218.8,142.1 218.5,145.8 218.4,149.6 218.5,153.4 218.8,157.2 219.3,160.9 219.9,164.6 220.7,168.1 221.7,171.7 
					222.9,175.1 224.2,178.5 225.7,181.8 227.3,185 229.1,188.1 231,191.1 233.1,194 235.3,196.8 237.6,199.5 240,202.1 
					242.6,204.5 242.8,204.7 243,204.5 				"/>
			</g>
		</g>
	</g>
</g>
</svg>
