<?xml version="1.0" encoding="utf-8"?>
<svg xmlns="http://www.w3.org/2000/svg" width="16.122" height="10.135" viewBox="0 0 16.122 10.135">
  <g id="Group_96" data-name="Group 96" transform="translate(-52.529 -366.232)">
    <path id="Path_102" data-name="Path 102" d="M54.445,370.333V377.2a.319.319,0,0,1-.319.319H52.848a.319.319,0,0,1-.319-.319v-6.864a.319.319,0,0,1,.319-.319h1.278A.319.319,0,0,1,54.445,370.333Zm-1.278.319v6.225h.639v-6.225Z" transform="translate(0 -2.466)" fill="#aa989c"/>
    <path id="Path_103" data-name="Path 103" d="M58.994,366.551v9.5a.319.319,0,0,1-.319.319H56.52a.319.319,0,0,1-.319-.319v-9.5a.319.319,0,0,1,.319-.319h2.155A.319.319,0,0,1,58.994,366.551Zm-2.155.319v8.857h1.516v-8.857Z" transform="translate(-2.394 0)" fill="#aa989c"/>
    <path id="Path_104" data-name="Path 104" d="M93.361,377.2v-6.864a.319.319,0,0,1,.319-.319h1.278a.319.319,0,0,1,.319.319V377.2a.319.319,0,0,1-.319.319H93.68A.319.319,0,0,1,93.361,377.2Zm1.277-.319v-6.225H94v6.225Z" transform="translate(-26.626 -2.466)" fill="#aa989c"/>
    <path id="Path_105" data-name="Path 105" d="M87.167,376.047v-9.5a.319.319,0,0,1,.319-.319h2.155a.319.319,0,0,1,.319.319v9.5a.319.319,0,0,1-.319.319H87.486A.319.319,0,0,1,87.167,376.047Zm2.155-.319v-8.857H87.806v8.857Z" transform="translate(-22.587 0)" fill="#aa989c"/>
    <path id="Path_106" data-name="Path 106" d="M71.333,379.768H62.714a.319.319,0,0,1-.319-.319v-1.716a.319.319,0,0,1,.319-.319h8.619a.319.319,0,0,1,.319.319v1.716A.319.319,0,0,1,71.333,379.768Zm-.319-1.716h-7.98v1.077h7.98Z" transform="translate(-6.434 -7.291)" fill="#aa989c"/>
  </g>
</svg>
