<?xml version="1.0" encoding="utf-8"?>
<svg xmlns="http://www.w3.org/2000/svg" width="19.22" height="15.723" viewBox="0 0 19.22 15.723">
  <path id="Path_166" data-name="Path 166" d="M246.245,377.175a2.338,2.338,0,1,1,2.338-2.338A2.341,2.341,0,0,1,246.245,377.175Zm0-3.762a1.425,1.425,0,1,0,1.425,1.425A1.426,1.426,0,0,0,246.245,373.413Zm3.906-1.984a.5.5,0,0,1-.351-.146,5.032,5.032,0,0,0-7.109,0,.5.5,0,0,1-.7-.7,6.024,6.024,0,0,1,8.513,0,.5.5,0,0,1,0,.7A.49.49,0,0,1,250.151,371.429Zm-10.416-2.6a.5.5,0,0,1-.351-.848,9.715,9.715,0,0,1,13.721,0,.5.5,0,0,1-.7.7,8.721,8.721,0,0,0-12.317,0A.492.492,0,0,1,239.735,368.824Zm15.623-2.6a.5.5,0,0,1-.351-.146,12.392,12.392,0,0,0-17.524,0,.5.5,0,1,1-.7-.7,13.383,13.383,0,0,1,18.929,0,.5.5,0,0,1-.351.848Z" transform="translate(-236.635 -361.452)" fill="#aa989c"/>
</svg>
