<?xml version="1.0" encoding="utf-8"?>
<!-- Svg Vector Icons : http://www.onlinewebfonts.com/icon -->
<!DOCTYPE svg PUBLIC "-//W3C//DTD SVG 1.1//EN" "http://www.w3.org/Graphics/SVG/1.1/DTD/svg11.dtd">
<svg version="1.1" xmlns="http://www.w3.org/2000/svg" xmlns:xlink="http://www.w3.org/1999/xlink" x="0px" y="0px" viewBox="0 0 1000 1000" enable-background="new 0 0 1000 1000" xml:space="preserve">
<metadata> Svg Vector Icons : http://www.onlinewebfonts.com/icon </metadata>
<g><path style="fill:#ffffff;" d="M989.6,366c0-42.3-34.6-76.6-77.5-76.6H852c25.2-24.2,40.9-58.2,40.9-95.8c0-74-60.8-134-135.6-134c-76.2,0-125.8,74.8-155.8,145.3c-16-7-35.7-11.4-57.2-11.4c-21.5,0-41.1,4.3-57.2,11.4c-29.9-70.5-79.7-145.3-155.8-145.3c-63.4,0-116.3,43.3-131,101.5c12.3,2.5,24.8,5.8,37.5,9.8c10.2-42,48.3-73.4,93.8-73.4c55.7,0,97.3,65.9,123.7,130.9c-4.2,5.9-6.4,12.2-7.1,18.9c2-0.3,4-0.7,5.7-1.2c-2.5,0.8-4.1,1.8-6.1,2.9c-0.1,0.8-0.4,1.3-0.4,2.2c0,12.3,7.1,23.5,18.3,32.8c-0.2,0.1-0.3,0.2-0.4,0.3c-25.2,7.8-74,6.8-163.4-42.1c-199-108.8-286.7-4.2-287.7-3.1c-6.7,8.2-5.5,20.3,2.8,26.9c8.3,6.6,20.5,5.4,27.2-2.8c0.8-0.9,67.9-81,238.8,12.5c61.5,33.7,113.7,50.5,155.8,50.5c8.5,0,16.6-1,24.2-2.3c0.6,1.3,1.4,2.6,2.1,3.9H525v153.1H137.7V365.9c0-21.1,17.4-38.2,38.8-38.2H305c-13.1-6.1-26.5-12.6-40.4-20.3c-12.9-7-25.5-13-37.7-18.1h-50.5c-42.8,0-77.5,34.3-77.5,76.6v153.1H157v344.6c0,42.3,34.7,76.6,77.6,76.6h290.4h38.6h290.5c42.8,0,77.5-34.3,77.5-76.6V519.3H990L989.6,366L989.6,366z M525.1,902.1H234.6c-21.4,0-38.8-17.1-38.8-38.3V519.1h329.2V902.1L525.1,902.1z M641.1,251.2c0-8.1-2.8-15.8-7.8-22.7C659.7,163.4,701.2,97.6,757,97.6c53.4,0,96.8,42.9,96.8,95.8c0,52.7-43.4,95.7-96.8,95.7H616.6C631.7,278.9,641.1,265.7,641.1,251.2L641.1,251.2z M544.3,270.3c-7.8,0-15.2-0.5-22.1-1.5c-1.8-3.3-4.3-6.3-8-8c-6-3-12.7-2.1-18.2,1c-6.1-3-9.8-6.7-9.8-10.6c0-10.6,26-19.2,58.1-19.2c32.1,0,58.1,8.7,58.1,19.2S576.4,270.3,544.3,270.3L544.3,270.3z M892.9,863.8c0,21.2-17.4,38.3-38.7,38.3H563.7V519.1h329.2V863.8L892.9,863.8z M951.1,480.9H563.7V327.7h193.7h154.9c21.4,0,38.8,17,38.8,38.3V480.9L951.1,480.9z"/></g>
</svg>