<?xml version="1.0" encoding="utf-8"?>
<!-- Generator: Adobe Illustrator 21.0.2, SVG Export Plug-In . SVG Version: 6.00 Build 0)  -->
<svg version="1.1" id="Layer_1" xmlns="http://www.w3.org/2000/svg" xmlns:xlink="http://www.w3.org/1999/xlink" x="0px" y="0px"
	 viewBox="0 0 27 25" style="enable-background:new 0 0 27 25;" xml:space="preserve">
<style type="text/css">
	.st0{fill:#CBA052;}
</style>
<path class="st0" d="M13.7,24l-8.1-7.6c-0.2-0.2-0.4-0.4-0.6-0.7c-1-1.1-2.5-2.6-3.1-4.5c-0.3-0.9-0.5-1.9-0.5-2.9
	c0.1-3.7,3.1-6.8,6.8-7c2.1,0,4,0.9,5.4,2.4c1.3-1.5,3.1-2.4,5.1-2.4c3.6,0,6.5,3,6.8,7.1c0.1,0.9,0,1.8-0.2,2.7c-0.5,2-2.3,4-3.2,5
	l-0.2,0.3L13.7,24z M8.3,3.1c-2.7,0.1-5,2.4-5,5.2c0,0.8,0.1,1.6,0.4,2.3c0.5,1.5,1.8,2.9,2.7,3.9C6.6,14.8,6.8,15,7,15.2l6.8,6.4
	l7-6.6c0.8-0.9,2.5-2.7,2.8-4.2c0.2-0.7,0.2-1.4,0.2-2.1l0,0c-0.3-3.1-2.4-5.4-5-5.4c-1.8,0-3.4,1-4.3,2.5L13.7,7l-0.8-1.3
	C11.9,4.1,10.2,3.1,8.3,3.1z"/>
</svg>
