<svg xmlns="http://www.w3.org/2000/svg" width="35.366" height="37.925" viewBox="0 0 35.366 37.925">
  <g id="Icon_New" data-name="Icon — New" transform="translate(0)">
    <path id="パス_48" data-name="パス 48" d="M446.747,426.637l-13.5,7.474a4.344,4.344,0,0,1-4.185,0l-13.5-7.474a3.99,3.99,0,0,1-2.093-3.477V408.212a3.99,3.99,0,0,1,2.093-3.477l13.5-7.474a4.345,4.345,0,0,1,4.185,0l13.5,7.474a3.99,3.99,0,0,1,2.093,3.477V423.16A3.99,3.99,0,0,1,446.747,426.637Z" transform="translate(-413.474 -396.724)" fill="#baa9ad"/>
    <text id="NEW" transform="translate(18.377 23.187)" fill="#fff" font-size="12" font-family="Lato-Regular, Lato"><tspan x="-14.259" y="0">NEW</tspan></text>
  </g>
</svg>
