<?xml version="1.0" encoding="utf-8"?>
<svg xmlns="http://www.w3.org/2000/svg" width="12.877" height="15.8" viewBox="0 0 12.877 15.8">
  <path id="Path_101" data-name="Path 101" d="M304.144,373.192v1.327h11.521V362.664h-4.956a.339.339,0,1,1,0-.678h4.956v-1.234a.68.68,0,0,0-.678-.678H304.821a.68.68,0,0,0-.677.678v1.234h6.8a.339.339,0,0,1,0,.678h-6.8v10.528Zm-.678-2.711v-9.728a1.355,1.355,0,0,1,1.355-1.356h10.166a1.355,1.355,0,0,1,1.356,1.356v14.106a.335.335,0,0,1-.339.339H303.8a.335.335,0,0,1-.339-.339v-4.377Zm6.438-7.071a5.083,5.083,0,1,1-5.083,5.083A5.088,5.088,0,0,1,309.9,363.41Zm-4.405,5.083a4.405,4.405,0,1,0,4.405-4.405A4.41,4.41,0,0,0,305.5,368.493Zm9.149-7.062a.339.339,0,1,0-.339-.339A.34.34,0,0,0,314.648,361.43Zm-1.355,0a.339.339,0,1,0-.339-.339A.34.34,0,0,0,313.293,361.43Zm-6.8,5.571.007-.012a3.725,3.725,0,0,1,6.817,0c0,.005.006.01.008.016a3.727,3.727,0,1,1-6.832,0Zm6.465,1.491a2.977,2.977,0,0,0-.176-1.017h-5.747a2.973,2.973,0,0,0-.176,1.017,3.05,3.05,0,0,0,6.1,0ZM307.37,366.8h5.069a3.047,3.047,0,0,0-5.069,0Z" transform="translate(-303.466 -359.397)" fill="#aa989c"/>
</svg>
