<?xml version="1.0" encoding="utf-8"?>
<!-- Generator: Adobe Illustrator 19.1.0, SVG Export Plug-In . SVG Version: 6.00 Build 0)  -->
<svg version="1.1" id="Layer_1" xmlns="http://www.w3.org/2000/svg" xmlns:xlink="http://www.w3.org/1999/xlink" x="0px" y="0px"
	 viewBox="0 0 283.7 61" style="enable-background:new 0 0 283.7 61;" xml:space="preserve">
<style type="text/css">
	.st0{fill:#333740;}
</style>
<g>
	<g>
		<path class="st0" d="M122.8,48.8c0,1.8,0,2,1,2.1l0.5,0.1c0.1,0.1,0.1,0.4,0,0.4c-1,0-1.5-0.1-2.2-0.1c-0.7,0-1.3,0-2.4,0.1
			c-0.1-0.1-0.1-0.3,0-0.4l0.6-0.1c1-0.1,1.1-0.3,1.1-2.1v-7.6c0-0.5,0-0.5-0.5-0.5h-0.9c-0.7,0-1.7,0-2.1,0.4
			c-0.4,0.4-0.6,0.7-0.8,1.2c-0.1,0.1-0.4,0-0.4-0.1c0.3-0.8,0.5-1.9,0.6-2.5c0.1,0,0.3-0.1,0.3,0c0.1,0.5,0.7,0.5,1.4,0.5h6.9
			c0.9,0,1.1,0,1.3-0.5c0.1,0,0.3,0,0.3,0.1c-0.2,0.7-0.3,2.1-0.3,2.6c-0.1,0.1-0.4,0.1-0.4,0c-0.1-0.4-0.2-1.1-0.4-1.2
			c-0.4-0.3-1-0.4-2-0.4h-1.2c-0.5,0-0.5,0-0.5,0.6V48.8z"/>
		<path class="st0" d="M131.3,45.9c-0.8,0-0.8,0-0.8,0.5v2.4c0,1.8,0.1,2,1,2.1L132,51c0.1,0.1,0.1,0.4,0,0.4
			c-0.9,0-1.5-0.1-2.2-0.1c-0.7,0-1.3,0-2,0.1c-0.1-0.1-0.1-0.3,0-0.4l0.3-0.1c1-0.2,1-0.3,1-2.1v-6.1c0-1.8-0.1-2.1-1-2.1l-0.4,0
			c-0.1-0.1-0.1-0.4,0-0.4c0.8,0,1.4,0.1,2.1,0.1c0.7,0,1.2,0,2-0.1c0.1,0.1,0.1,0.4,0,0.4l-0.3,0c-1,0.1-1,0.4-1,2.1v2
			c0,0.5,0,0.5,0.8,0.5h4.9c0.8,0,0.8,0,0.8-0.5v-2c0-1.8,0-2-1-2.1l-0.3,0c-0.1-0.1-0.1-0.4,0-0.4c0.8,0,1.4,0.1,2.1,0.1
			c0.7,0,1.2,0,2-0.1c0.1,0.1,0.1,0.4,0,0.4l-0.4,0c-1,0.1-1,0.4-1,2.1v6.1c0,1.8,0,2,1,2.1l0.4,0.1c0.1,0.1,0.1,0.4,0,0.4
			c-0.8,0-1.4-0.1-2.1-0.1c-0.7,0-1.3,0-2.1,0.1c-0.1-0.1-0.1-0.3,0-0.4L136,51c1-0.2,1-0.3,1-2.1v-2.4c0-0.5,0-0.5-0.8-0.5H131.3z"
			/>
		<path class="st0" d="M141.9,42.7c0-1.8,0-2-1-2.1l-0.3,0c-0.1-0.1-0.1-0.4,0-0.4c0.7,0,1.3,0.1,2,0.1h3.2c1.1,0,2.1,0,2.3-0.1
			c0.1,0.3,0.2,1.5,0.3,2.3c-0.1,0.1-0.3,0.1-0.4,0c-0.3-0.8-0.4-1.4-1.3-1.6c-0.4-0.1-0.9-0.1-1.6-0.1h-1.2c-0.5,0-0.5,0-0.5,0.7
			v3.4c0,0.5,0.1,0.5,0.6,0.5h1c0.7,0,1.2,0,1.4-0.1c0.2-0.1,0.3-0.2,0.4-0.6l0.1-0.7c0.1-0.1,0.4-0.1,0.4,0c0,0.4-0.1,1.1-0.1,1.7
			c0,0.6,0.1,1.3,0.1,1.6c-0.1,0.1-0.4,0.1-0.4,0l-0.2-0.7c-0.1-0.3-0.2-0.6-0.5-0.6c-0.2-0.1-0.6-0.1-1.3-0.1h-1
			c-0.5,0-0.6,0-0.6,0.5v2.4c0,0.9,0.1,1.5,0.3,1.8c0.2,0.2,0.6,0.4,2.1,0.4c1.3,0,1.8-0.1,2.2-0.3c0.3-0.2,0.8-0.8,1.2-1.6
			c0.1-0.1,0.4,0,0.4,0.1c-0.1,0.6-0.5,1.9-0.8,2.4c-1.5,0-3-0.1-4.6-0.1h-1.5c-0.7,0-1.3,0-2.3,0.1c-0.1-0.1-0.1-0.3,0-0.4l0.6-0.1
			c1-0.1,1.1-0.3,1.1-2.1V42.7z"/>
		<path class="st0" d="M163.2,49.6c0,0.7,0.1,1.1,0.4,1.2c0.1,0.1,0.1,0.2,0,0.2c-0.2,0-0.5,0.1-0.8,0.2c-0.9,0.2-2.1,0.4-3,0.4
			c-2,0-3.9-0.6-5.2-1.9c-1-1-1.6-2.4-1.6-3.9c0-1.4,0.5-2.9,1.5-4c1.1-1.2,2.8-2,5.4-2c1,0,1.9,0.2,2.2,0.3
			c0.3,0.1,0.9,0.2,1.1,0.2c0,0.6,0.1,1.4,0.3,2.5c-0.1,0.1-0.4,0.2-0.5,0.1c-0.5-1.8-1.8-2.4-3.5-2.4c-3.3,0-4.7,2.3-4.7,4.9
			c0,3.3,1.7,5.8,5.1,5.8c1.1,0,1.7-0.2,1.9-0.5c0.1-0.1,0.2-0.4,0.2-1V49c0-1.4-0.1-1.5-1.1-1.6l-0.7-0.1c-0.1-0.1-0.1-0.4,0-0.4
			c0.5,0,1.4,0.1,2.4,0.1c0.7,0,1.2,0,1.8-0.1c0.1,0.1,0.1,0.3,0,0.4l-0.3,0c-0.7,0.1-0.7,0.6-0.7,1.4V49.6z"/>
		<path class="st0" d="M164.8,45.9c0-3.4,2.5-6,6.1-6c3.9,0,5.9,2.8,5.9,5.8c0,3.4-2.6,5.9-5.9,5.9
			C167.1,51.6,164.8,48.9,164.8,45.9z M175.1,46.2c0-2.8-1.2-5.8-4.5-5.8c-1.8,0-4.1,1.2-4.1,4.9c0,2.5,1.2,5.8,4.6,5.8
			C173.2,51.1,175.1,49.6,175.1,46.2z"/>
		<path class="st0" d="M177.5,45.9c0-3.4,2.5-6,6.1-6c3.9,0,5.9,2.8,5.9,5.8c0,3.4-2.6,5.9-5.9,5.9
			C179.8,51.6,177.5,48.9,177.5,45.9z M187.8,46.2c0-2.8-1.2-5.8-4.5-5.8c-1.8,0-4.1,1.2-4.1,4.9c0,2.5,1.2,5.8,4.6,5.8
			C185.8,51.1,187.8,49.6,187.8,46.2z"/>
		<path class="st0" d="M191.6,42.4c0-1.2-0.1-1.5-0.8-1.6l-0.4-0.1c-0.1-0.1-0.2-0.4,0-0.4c1.4-0.1,2.8-0.1,4.3-0.1
			c1.4,0,2.6,0.1,3.7,0.5c2.3,0.8,3.5,2.8,3.5,5c0,2.2-1,4-3,5.1c-1.1,0.6-2.5,0.8-3.8,0.8c-1.1,0-2.2-0.1-2.8-0.1
			c-0.7,0-1.3,0-2.1,0.1c-0.1-0.1-0.1-0.3,0-0.4l0.4-0.1c1-0.1,1-0.3,1-2.1V42.4z M193,48.4c0,0.9,0.1,1.4,0.3,1.9
			c0.4,0.5,1,0.7,2.1,0.7c3.3,0,4.8-2.2,4.8-5.3c0-1.9-0.9-5-5.4-5c-1,0-1.5,0.1-1.7,0.2c-0.1,0.1-0.2,0.5-0.2,1.3V48.4z"/>
		<path class="st0" d="M207.4,42.7c0-1.8,0-2.1-1.1-2.1l-0.4,0c-0.1-0.1-0.1-0.4,0-0.4c1,0,1.5,0.1,2.2,0.1c0.7,0,1.2,0,2.1-0.1
			c0.1,0.1,0.1,0.4,0,0.4l-0.4,0c-1,0.1-1,0.4-1,2.1v5.9c0,1.1,0.1,1.5,0.4,1.8c0.2,0.2,0.5,0.4,1.9,0.4c1.4,0,1.8-0.1,2.1-0.2
			c0.3-0.2,0.8-0.8,1.1-1.7c0.1-0.1,0.4,0,0.4,0.1c0,0.2-0.5,1.9-0.7,2.4c-0.9,0-2.5-0.1-4.2-0.1h-1.6c-0.7,0-1.3,0-2.2,0.1
			c-0.1-0.1-0.1-0.3,0-0.4l0.5-0.1c1-0.1,1-0.3,1-2.1V42.7z"/>
		<path class="st0" d="M215.9,42.7c0-1.8,0-2.1-1-2.2l-0.4,0c-0.1-0.1-0.1-0.4,0-0.4c0.8,0,1.4,0.1,2.1,0.1c0.7,0,1.3,0,2.1-0.1
			c0.1,0.1,0.1,0.4,0,0.4l-0.4,0c-1,0.1-1,0.4-1,2.2v6.1c0,1.8,0,2,1,2.2l0.4,0.1c0.1,0.1,0.1,0.4,0,0.4c-0.9,0-1.4-0.1-2.1-0.1
			c-0.7,0-1.3,0-2.1,0.1c-0.1-0.1-0.1-0.3,0-0.4l0.4-0.1c1-0.1,1-0.4,1-2.2V42.7z"/>
		<path class="st0" d="M222.2,45c0,0.5,0.1,0.5,0.6,0.5h1.2c0.7,0,1.2,0,1.4-0.1c0.2-0.1,0.3-0.2,0.4-0.6L226,44
			c0.1-0.1,0.4-0.1,0.4,0c0,0.4-0.1,1.1-0.1,1.7c0,0.6,0.1,1.3,0.1,1.6c-0.1,0.1-0.3,0.1-0.4,0l-0.2-0.7c-0.1-0.3-0.2-0.5-0.5-0.6
			c-0.2-0.1-0.7-0.1-1.3-0.1h-1.2c-0.5,0-0.6,0-0.6,0.5v2.4c0,1.8,0,2,1,2.1l0.6,0.1c0.1,0.1,0.1,0.4,0,0.4c-1,0-1.6-0.1-2.3-0.1
			c-0.7,0-1.3,0-2.1,0.1c-0.1-0.1-0.1-0.3,0-0.4l0.4-0.1c1-0.1,1-0.3,1-2.1v-6.1c0-1.8,0-2-1-2.1l-0.3,0c-0.1-0.1-0.1-0.4,0-0.4
			c0.7,0,1.3,0.1,2,0.1h3.1c1.1,0,2.1,0,2.3-0.1c0,0.8,0,1.6,0.1,2.2c-0.1,0.1-0.3,0.2-0.4,0.1c-0.1-0.8-0.3-1.4-1.2-1.6
			c-0.4-0.1-0.9-0.1-1.6-0.1h-1c-0.5,0-0.5,0-0.5,0.7V45z"/>
		<path class="st0" d="M229.1,42.7c0-1.8,0-2-1-2.1l-0.3,0c-0.1-0.1-0.1-0.4,0-0.4c0.7,0,1.3,0.1,2,0.1h3.2c1.1,0,2.1,0,2.3-0.1
			c0.1,0.3,0.2,1.5,0.3,2.3c-0.1,0.1-0.3,0.1-0.4,0c-0.3-0.8-0.4-1.4-1.3-1.6c-0.4-0.1-0.9-0.1-1.6-0.1H231c-0.5,0-0.5,0-0.5,0.7
			v3.4c0,0.5,0.1,0.5,0.6,0.5h1c0.7,0,1.2,0,1.4-0.1s0.3-0.2,0.4-0.6l0.1-0.7c0.1-0.1,0.4-0.1,0.4,0c0,0.4-0.1,1.1-0.1,1.7
			c0,0.6,0.1,1.3,0.1,1.6c-0.1,0.1-0.4,0.1-0.4,0l-0.2-0.7c-0.1-0.3-0.2-0.6-0.5-0.6c-0.2-0.1-0.6-0.1-1.3-0.1h-1
			c-0.5,0-0.6,0-0.6,0.5v2.4c0,0.9,0.1,1.5,0.3,1.8c0.2,0.2,0.6,0.4,2.1,0.4c1.3,0,1.8-0.1,2.2-0.3c0.3-0.2,0.8-0.8,1.2-1.6
			c0.1-0.1,0.4,0,0.4,0.1c-0.1,0.6-0.5,1.9-0.8,2.4c-1.5,0-3-0.1-4.6-0.1h-1.5c-0.7,0-1.3,0-2.3,0.1c-0.1-0.1-0.1-0.3,0-0.4l0.6-0.1
			c1-0.1,1.1-0.3,1.1-2.1V42.7z"/>
	</g>
	<path class="st0" d="M6.7,56.8C-2,49.2-0.9,36.4,4.9,30.1c5.1-5.5,9.3-6.7,14.1-7.6c2.9-0.6,7.1-0.1,8.6-0.9
		c1.4-0.7,1.5-2.9-0.7-3.7c-1.6-0.6-5.6,0.3-7.4,0.8c-3,0.8-6.9,1.7-9.5,1.4c-5.7-0.7-10-4.6-10-8.8c0-5.4,8.5-8.9,13.7-9
		c4.4-0.1,8.4,1.5,11.6,3.9c1.8,1.3,3.2,3.5,4.5,4c1.3,0.4,1.7-0.7,1.2-1.5c-0.6-0.9-2.9-2.2-3.8-3c-1.7-1.5-2.7-2.8-2.4-4.2
		c0.4-1.6,4-2.2,8.1-0.7c3.3,1.2,4.6,3,5.9,4.6c0.9,1.2,0.3,2.8,0.5,4c0.3,1.4,1.7,1.3,1.7,0.3c0-0.8,0.3-2.7,0.7-3.1
		c1.3-1,3.4-0.3,6.3,1.8c2.2,1.6,4.1,4.6,3.7,6c-0.3,1.1-2.5,1.7-3.1,1.6c-1.1,0-1.2,1.4,0,1.7c0.6,0.2,2.3-0.2,3.2-0.2
		c1.5,0,3.1,1,5,3c3.3,3.4,5.6,9.7,3.6,11.2c-1.7,1.3-4.3-0.7-6.2-2.4c-0.7-0.6-2.2-2.3-2.8-2.9c-1.4-1.3-2.4-0.1-1.9,0.9
		c0.7,1.4,2.9,2.7,3.8,3.5c3.4,2.8,6.3,7.7,7.2,12.1c1.5,7.3-1.1,14.7-6.5,15.5c-4.9,0.7-9.4-3.8-11.5-10.8c-0.9-3.1-1.2-5.9-1-8.5
		c0.1-1.6,0.6-5.9,0.3-7.1c-0.9-3.7-4.7-2.2-4.3,0.2c0.5,3,0.7,7.8,0.5,9.2c-0.5,4-1.5,8.4-4.2,11.8C27.3,61.6,14.7,63.8,6.7,56.8"
		/>
	<g>
		<path class="st0" d="M75.5,32.2c-2.7,0-4.4-0.8-5.1-1.2c-0.4-0.7-0.8-3-0.9-4.6c0.2-0.2,0.7-0.3,0.8-0.1c0.5,1.7,1.8,4.8,5.6,4.8
			c2.7,0,4.1-1.8,4.1-3.7c0-1.4-0.3-3-2.7-4.5l-3.1-2c-1.6-1.1-3.5-2.9-3.5-5.6c0-3.1,2.4-5.6,6.6-5.6c1,0,2.2,0.2,3,0.4
			c0.4,0.1,0.9,0.2,1.1,0.2c0.3,0.8,0.6,2.6,0.6,4c-0.1,0.2-0.6,0.3-0.8,0.1c-0.4-1.6-1.3-3.7-4.4-3.7c-3.2,0-3.9,2.1-3.9,3.6
			c0,1.9,1.6,3.2,2.8,4l2.6,1.6c2,1.3,4.1,3.1,4.1,6.2C82.4,29.8,79.8,32.2,75.5,32.2"/>
		<path class="st0" d="M88.3,15.1c0-3.4-0.1-3.9-1.9-4.1L85.5,11c-0.2-0.1-0.1-0.7,0.1-0.8c1.6,0.1,2.6,0.1,4.1,0.1
			c1.3,0,2.4,0,3.8-0.1c0.2,0.1,0.3,0.7,0.1,0.8L92.9,11c-1.9,0.2-2,0.7-2,4.1v3.7c0,0.6,0.1,1.2,0.4,1.2c0.3,0,0.7-0.2,0.9-0.4
			c0.5-0.4,1.3-1.2,1.7-1.6l3.5-3.5c0.6-0.6,2.2-2.2,2.5-2.7c0.2-0.2,0.2-0.4,0.2-0.5c0-0.1-0.1-0.2-0.6-0.3L98.8,11
			c-0.2-0.2-0.2-0.7,0.1-0.8c1.1,0.1,2.4,0.1,3.6,0.1c1.1,0,2.2,0,3.2-0.1c0.2,0.2,0.3,0.6,0.1,0.8c-0.8,0.1-2.1,0.4-3,0.9
			c-0.9,0.5-2.7,2-4.5,3.8l-2.9,2.8c-0.5,0.5-0.7,0.7-0.7,1c0,0.2,0.2,0.5,0.6,1c3.1,3.5,5.6,6.5,8.1,9.1c0.8,0.8,1.5,1.2,2.6,1.3
			l0.9,0.1c0.2,0.2,0.2,0.7-0.1,0.8c-0.8-0.1-2.1-0.1-3.6-0.1c-1.3,0-2.5,0-4,0.1c-0.2-0.1-0.3-0.6-0.1-0.8l0.7-0.1
			c0.5-0.1,0.8-0.2,0.8-0.3c0-0.2-0.2-0.5-0.5-0.7c-0.6-0.8-1.5-1.7-2.7-3.1l-2.6-2.9c-1.9-2.1-2.4-2.7-3.1-2.7
			c-0.5,0-0.6,0.4-0.6,1.6v4.2c0,3.4,0.1,3.9,1.9,4.1l0.9,0.1c0.2,0.1,0.1,0.7-0.1,0.8c-1.6-0.1-2.7-0.1-4-0.1c-1.3,0-2.4,0-3.8,0.1
			c-0.2-0.1-0.3-0.6-0.1-0.8l0.7-0.1c1.7-0.3,1.8-0.7,1.8-4.1V15.1z"/>
		<path class="st0" d="M116.9,26.7c0,3.5,0.2,4,1.9,4.1l1.2,0.1c0.2,0.2,0.1,0.7-0.1,0.8c-2-0.1-3.1-0.1-4.4-0.1
			c-1.4,0-2.5,0-4.3,0.1c-0.2-0.1-0.3-0.6-0.1-0.8l1-0.1c1.9-0.2,1.9-0.7,1.9-4.1v-1.7c0-1.8-0.1-2.2-1-4l-3.8-7.5
			c-1.1-2.1-1.6-2.3-2.6-2.5l-0.9-0.2c-0.2-0.2-0.2-0.7,0.1-0.8c1,0.1,2.2,0.1,3.8,0.1c1.5,0,2.7,0,3.5-0.1c0.3,0.1,0.3,0.6,0.1,0.8
			l-0.4,0.1c-1.1,0.2-1.4,0.3-1.4,0.6c0,0.3,0.8,2.2,1,2.5c1.2,2.4,2.4,5,3.7,7.2c1-1.7,2.1-3.6,3-5.5c0.9-1.7,2.1-3.9,2.1-4.3
			c0-0.2-0.6-0.4-1.4-0.5l-0.6-0.1c-0.2-0.2-0.2-0.7,0.1-0.8c1.2,0.1,2.1,0.1,3.1,0.1c1,0,1.9,0,3-0.1c0.3,0.2,0.3,0.6,0.1,0.8
			l-0.9,0.2c-1.7,0.3-2.7,2.3-4.3,5.1l-2,3.5c-1.4,2.5-1.5,2.8-1.5,5.3V26.7z"/>
		<path class="st0" d="M139.6,26.8c0,3.4,0.1,3.8,2.1,4.1l0.9,0.1c0.2,0.2,0.1,0.7-0.1,0.8c-1.8-0.1-2.9-0.1-4.2-0.1
			c-1.4,0-2.5,0-4,0.1c-0.2-0.1-0.3-0.6-0.1-0.8l0.7-0.1c1.9-0.3,1.9-0.7,1.9-4.1v-12c0-2.8-0.1-3.3-1.5-3.5l-1.2-0.1
			c-0.2-0.2-0.2-0.7,0.1-0.8c1.7-0.2,3.7-0.3,6.4-0.3c2.7,0,4.7,0.4,6.2,1.3c1.5,0.9,2.6,2.6,2.6,4.9c0,3-1.8,4.5-3.2,5.2
			c-1.4,0.7-3.2,1-4.5,1c-0.2-0.1-0.2-0.6,0-0.6c3.5-0.7,4.8-2.6,4.8-5.5c0-3.2-1.8-5.2-5.2-5.2c-1.7,0-1.7,0.1-1.7,1.2V26.8z"/>
		<path class="st0" d="M154.8,15.1c0-3.1-0.1-3.6-1.4-3.8l-1-0.1c-0.2-0.2-0.2-0.7,0-0.8c1.8-0.2,4.1-0.3,7.2-0.3c2,0,3.9,0.2,5.4,1
			c1.6,0.8,2.7,2.3,2.7,4.5c0,3.1-2.4,4.8-4.1,5.4c-0.2,0.2,0,0.5,0.2,0.8c2.6,4.2,4.3,6.8,6.5,8.6c0.5,0.5,1.4,0.8,2.2,0.9
			c0.2,0.1,0.2,0.3,0,0.5c-0.3,0.1-0.8,0.2-1.4,0.2c-2.8,0-4.4-0.8-6.7-4.1c-0.8-1.2-2.2-3.4-3.2-4.9c-0.5-0.7-1-1-2.3-1
			c-1.5,0-1.5,0-1.5,0.7v4.1c0,3.4,0.1,3.8,1.9,4.1l0.7,0.1c0.2,0.2,0.1,0.7-0.1,0.8c-1.5-0.1-2.6-0.1-3.9-0.1c-1.4,0-2.5,0-4.1,0.1
			c-0.2-0.1-0.3-0.6-0.1-0.8l0.8-0.1c1.9-0.2,1.9-0.7,1.9-4.1V15.1z M157.4,19.8c0,0.6,0,0.9,0.1,1.1c0.1,0.1,0.6,0.2,2.2,0.2
			c1.2,0,2.4-0.1,3.3-0.8c0.9-0.7,1.6-1.8,1.6-4c0-2.6-1.6-5-5.2-5c-2,0-2.1,0.1-2.1,1V19.8z"/>
		<path class="st0" d="M175.7,15.1c0-3.4-0.1-3.9-2-4.1l-0.5-0.1c-0.2-0.1-0.1-0.7,0.1-0.8c1.4,0.1,2.5,0.1,3.8,0.1h6.1
			c2.1,0,4,0,4.4-0.1c0.2,0.6,0.4,2.9,0.5,4.3c-0.1,0.2-0.6,0.3-0.8,0.1c-0.5-1.5-0.8-2.7-2.5-3.1c-0.7-0.2-1.7-0.2-3.1-0.2h-2.3
			c-1,0-1,0.1-1,1.3V19c0,0.9,0.1,0.9,1.1,0.9h1.9c1.4,0,2.4-0.1,2.8-0.2c0.4-0.1,0.6-0.3,0.8-1.1l0.3-1.3c0.2-0.2,0.7-0.2,0.8,0
			c0,0.8-0.1,2-0.1,3.3c0,1.2,0.1,2.4,0.1,3.1c-0.1,0.2-0.7,0.2-0.8,0l-0.3-1.3c-0.1-0.6-0.4-1.1-1-1.2c-0.5-0.1-1.2-0.2-2.5-0.2
			h-1.9c-1,0-1.1,0-1.1,0.9v4.6c0,1.7,0.1,2.8,0.6,3.4c0.4,0.4,1.1,0.7,3.9,0.7c2.5,0,3.4-0.1,4.1-0.5c0.6-0.3,1.5-1.5,2.3-3.1
			c0.2-0.2,0.7-0.1,0.8,0.2c-0.2,1.1-1,3.6-1.5,4.5c-2.9-0.1-5.8-0.1-8.7-0.1h-2.9c-1.4,0-2.5,0-4.4,0.1c-0.2-0.1-0.3-0.6-0.1-0.8
			l1.1-0.1c1.8-0.2,2-0.7,2-4.1V15.1z"/>
		<path class="st0" d="M203.1,23c0.7,1.5,1.5,3,2.2,4.4h0.1c0.9-1.5,1.7-3.2,2.5-4.9l3-6.2c1.5-3,2.4-4.7,2.5-6.2
			c1.1,0.1,1.8,0.1,2.4,0.1c0.8,0,1.9,0,2.9-0.1c0.2,0.1,0.2,0.7,0,0.8l-0.7,0.1c-2,0.2-2.3,0.8-2.3,3.1c0.1,3.4,0.1,9.5,0.4,14.1
			c0.1,1.6,0.1,2.5,1.6,2.6l1,0.1c0.2,0.2,0.2,0.7-0.1,0.8c-1.3-0.1-2.7-0.1-3.8-0.1c-1.1,0-2.6,0-3.9,0.1c-0.2-0.2-0.3-0.6-0.1-0.8
			l0.9-0.1c1.6-0.2,1.6-0.7,1.6-2.8l-0.1-13.5h-0.1c-0.2,0.4-1.5,3-2.1,4.2l-2.9,5.7c-1.5,2.9-2.9,5.9-3.5,7.4
			c-0.1,0.1-0.2,0.1-0.3,0.1c-0.1,0-0.2,0-0.3-0.1c-0.6-1.7-2.1-4.9-2.9-6.5l-2.9-6.3c-0.7-1.5-1.4-3.2-2.1-4.7h-0.1
			c-0.1,2-0.2,3.9-0.3,5.8c-0.1,2-0.2,4.9-0.2,7.6c0,2.4,0.2,2.9,1.5,3l1.2,0.1c0.2,0.2,0.2,0.7,0,0.8c-1.1-0.1-2.4-0.1-3.6-0.1
			c-1,0-2.2,0-3.3,0.1c-0.2-0.2-0.3-0.7-0.1-0.8l0.7-0.1c1.4-0.2,1.8-0.4,2-2.7c0.2-2.1,0.4-3.9,0.6-7.1c0.2-2.7,0.3-5.5,0.4-7.2
			c0.1-2-0.2-2.5-2.2-2.8l-0.5-0.1c-0.2-0.2-0.1-0.7,0.1-0.8c1,0.1,1.8,0.1,2.6,0.1c0.7,0,1.6,0,2.7-0.1c-0.1,1.3,0.7,3.3,1.7,5.4
			L203.1,23z"/>
		<path class="st0" d="M224.2,15.2c0-3.4-0.1-4-2-4.2l-0.8-0.1c-0.2-0.1-0.1-0.7,0.1-0.8c1.6,0.1,2.7,0.1,4.1,0.1c1.3,0,2.4,0,4-0.1
			c0.2,0.1,0.3,0.7,0.1,0.8l-0.8,0.1c-1.9,0.2-2,0.7-2,4.2v11.6c0,3.4,0.1,3.9,2,4.1l0.8,0.1c0.2,0.1,0.1,0.7-0.1,0.8
			c-1.6-0.1-2.7-0.1-4-0.1c-1.4,0-2.5,0-4.1,0.1c-0.2-0.1-0.3-0.6-0.1-0.8l0.8-0.1c1.9-0.2,2-0.7,2-4.1V15.2z"/>
		<path class="st0" d="M250.7,18.4c0-2-0.1-5.7-0.6-6.7c-0.2-0.4-0.8-0.6-1.6-0.7l-0.8-0.1c-0.2-0.2-0.1-0.7,0.1-0.8
			c1.2,0.1,2.4,0.1,3.7,0.1c1.4,0,2.2,0,3.4-0.1c0.3,0.2,0.2,0.6,0.1,0.8l-0.8,0.1c-0.8,0.1-1.4,0.4-1.6,0.8
			c-0.5,1.1-0.5,4.8-0.5,6.6v3.7c0,2.8-0.5,5.8-2.3,7.8c-1.4,1.5-3.8,2.4-6.2,2.4c-2.2,0-4.5-0.4-6.1-1.8c-1.7-1.4-2.5-3.8-2.5-7.7
			v-7.7c0-3.4-0.1-3.9-1.9-4.1l-0.8-0.1c-0.2-0.1-0.1-0.7,0.1-0.8c1.6,0.1,2.7,0.1,4,0.1c1.3,0,2.4,0,4-0.1c0.2,0.1,0.3,0.7,0.1,0.8
			l-0.8,0.1c-1.9,0.2-1.9,0.7-1.9,4.1v7c0,5.2,1.6,8.7,6.6,8.7c4.7,0,6.5-3.7,6.5-8.6V18.4z"/>
		<path class="st0" d="M267.9,23c0.8,1.5,1.5,3,2.2,4.4h0.1c0.9-1.5,1.7-3.2,2.5-4.9l3-6.2c1.5-3,2.4-4.7,2.5-6.2
			c1.1,0.1,1.8,0.1,2.4,0.1c0.8,0,1.9,0,2.9-0.1c0.2,0.1,0.2,0.7,0,0.8l-0.7,0.1c-2.1,0.2-2.3,0.8-2.3,3.1c0.1,3.4,0.1,9.5,0.4,14.1
			c0.1,1.6,0.1,2.5,1.6,2.6l1,0.1c0.2,0.2,0.2,0.7-0.1,0.8c-1.3-0.1-2.7-0.1-3.8-0.1c-1.1,0-2.6,0-3.9,0.1c-0.2-0.2-0.3-0.6-0.1-0.8
			l0.9-0.1c1.6-0.2,1.6-0.7,1.6-2.8l-0.1-13.5h-0.1c-0.2,0.4-1.5,3-2.1,4.2l-2.9,5.7c-1.5,2.9-2.9,5.9-3.5,7.4
			c-0.1,0.1-0.2,0.1-0.3,0.1c-0.1,0-0.2,0-0.3-0.1c-0.6-1.7-2.1-4.9-2.9-6.5l-2.9-6.3c-0.7-1.5-1.4-3.2-2.1-4.7H261
			c-0.1,2-0.2,3.9-0.3,5.8c-0.1,2-0.2,4.9-0.2,7.6c0,2.4,0.2,2.9,1.5,3l1.2,0.1c0.2,0.2,0.2,0.7,0,0.8c-1.1-0.1-2.4-0.1-3.6-0.1
			c-1,0-2.2,0-3.3,0.1c-0.2-0.2-0.3-0.7-0.1-0.8l0.7-0.1c1.4-0.2,1.8-0.4,2-2.7c0.2-2.1,0.4-3.9,0.6-7.1c0.2-2.7,0.3-5.5,0.4-7.2
			c0.1-2-0.2-2.5-2.2-2.8l-0.5-0.1c-0.2-0.2-0.1-0.7,0.1-0.8c1,0.1,1.7,0.1,2.6,0.1c0.8,0,1.6,0,2.7-0.1c-0.1,1.3,0.7,3.3,1.7,5.4
			L267.9,23z"/>
	</g>
</g>
</svg>
