<?xml version="1.0" encoding="utf-8"?>
<svg xmlns="http://www.w3.org/2000/svg" width="21.941" height="16.456" viewBox="0 0 21.941 16.456">
  <path id="Path_168" data-name="Path 168" d="M374.805,367.931V366.1a1.828,1.828,0,1,0-3.656,0v.457a.457.457,0,1,0,.914,0V366.1a.914.914,0,1,1,1.828,0v1.828h-5.485V366.1a1.828,1.828,0,1,0-3.657,0v.457a.457.457,0,1,0,.914,0V366.1a.914.914,0,1,1,1.829,0v8.684a.457.457,0,1,0,.914,0v-.457h5.485v.914a.457.457,0,0,0,.914,0v-7.314Zm0,1.829v-.914m-.914,2.743h-5.485v-.914h5.485Zm-5.485,1.828V372.5h5.485v.914Zm5.485-3.657h-5.485v-.914h5.485Zm-6.927,7.609-.229.139a3.171,3.171,0,0,1-3.272,0l-.093-.056a2.242,2.242,0,0,0-2.465.1.457.457,0,1,1-.54-.737,3.163,3.163,0,0,1,3.481-.139l.093.056a2.251,2.251,0,0,0,2.321,0l.228-.139a3.172,3.172,0,0,1,3.272,0l.229.139a2.251,2.251,0,0,0,2.32,0l.229-.139a3.172,3.172,0,0,1,3.272,0l.229.139a2.252,2.252,0,0,0,2.321,0l.092-.057a3.163,3.163,0,0,1,3.481.139.457.457,0,0,1-.54.737,2.242,2.242,0,0,0-2.465-.1l-.093.057a3.172,3.172,0,0,1-3.273,0l-.228-.139a2.252,2.252,0,0,0-2.321,0l-.229.139a3.172,3.172,0,0,1-3.272,0l-.229-.139A2.251,2.251,0,0,0,366.964,377.368Zm0,2.767-.229.139a3.171,3.171,0,0,1-3.272,0l-.093-.056a2.241,2.241,0,0,0-2.465.1.457.457,0,1,1-.54-.738,3.163,3.163,0,0,1,3.481-.139l.093.056a2.25,2.25,0,0,0,2.321,0l.228-.139a3.172,3.172,0,0,1,3.272,0l.229.139a2.251,2.251,0,0,0,2.32,0l.229-.139a3.172,3.172,0,0,1,3.272,0l.229.139a2.252,2.252,0,0,0,2.321,0l.092-.057a3.162,3.162,0,0,1,3.481.139.457.457,0,0,1-.54.738,2.241,2.241,0,0,0-2.465-.1l-.093.057a3.172,3.172,0,0,1-3.273,0l-.228-.139a2.252,2.252,0,0,0-2.321,0l-.229.139a3.172,3.172,0,0,1-3.272,0l-.229-.139A2.251,2.251,0,0,0,366.964,380.136Z" transform="translate(-360.178 -364.274)" fill="#aa989c"/>
</svg>
