<?xml version="1.0" encoding="utf-8"?>
<svg xmlns="http://www.w3.org/2000/svg" width="14.397" height="18.415" viewBox="0 0 14.397 18.415">
  <path id="Path_167" data-name="Path 167" d="M492.645,368.639v-.379a1.846,1.846,0,0,0,1.228-1.672c0-1.14-.781-2.472-1.511-2.59a.5.5,0,0,0-.118-.01.4.4,0,0,0-.083.008c-.739.12-1.52,1.452-1.52,2.592a1.846,1.846,0,0,0,1.228,1.672v.38c-1.52.068-3.038.542-3.119,1.47l-.482,3.352a7.887,7.887,0,0,0-1.209-.141v-.412a1.845,1.845,0,0,0,1.242-1.677c0-1.14-.781-2.472-1.512-2.59a.47.47,0,0,0-.117-.011.368.368,0,0,0-.082.009c-.739.12-1.52,1.452-1.52,2.592a1.846,1.846,0,0,0,1.214,1.666v.425c-1.523.073-3.043.558-3.095,1.5l-.72,5.875a.385.385,0,0,0,.081.289c.046.058,1.159,1.409,4.122,1.419h.033c2.9-.01,4-1.274,4.118-1.42a.353.353,0,0,0,.048-.083c.354.036.819.054,1.387.054a8.077,8.077,0,0,0,4.44-1.176.389.389,0,0,0,.162-.362l-1.092-9.273C495.718,369.192,494.184,368.708,492.645,368.639Zm-1.227-2.052a2.529,2.529,0,0,1,.821-1.825,2.381,2.381,0,0,1,.858,1.825.945.945,0,0,1-.452.792v-.57a.388.388,0,0,0-.776,0v.57A.942.942,0,0,1,491.418,366.588Zm.451,2.829v.694a.388.388,0,0,0,.776,0v-.694c1.551.073,2.35.566,2.35.769,0,.226-.959.779-2.738.779s-2.737-.553-2.737-.779C489.52,369.982,490.319,369.49,491.869,369.416Zm-6.024,1.814a2.524,2.524,0,0,1,.822-1.825,2.383,2.383,0,0,1,.857,1.825.948.948,0,0,1-.465.8v-.8a.388.388,0,1,0-.776,0v.783A.939.939,0,0,1,485.845,371.231Zm.438,2.868v.809a.388.388,0,0,0,.776,0V374.1a3.5,3.5,0,0,1,2.355.707.359.359,0,0,0,0,.109l0,.015c-.153.257-1.08.718-2.714.718-1.779,0-2.738-.553-2.738-.779C483.961,374.667,484.751,374.177,486.283,374.1Zm.4,7.527a5.022,5.022,0,0,1-3.425-1.023l.587-4.781a7.1,7.1,0,0,0,5.677.015l.585,4.768A4.964,4.964,0,0,1,486.685,381.626Zm5.572-1.45a12.213,12.213,0,0,1-1.426-.062l-.63-5.136a.7.7,0,0,0,.011-.111c0-.5-.411-.916-1.19-1.2l.365-2.54a5.934,5.934,0,0,0,2.87.612,6.008,6.008,0,0,0,2.848-.6l.954,8.115A7.888,7.888,0,0,1,492.257,380.176Z" transform="translate(-482.465 -363.987)" fill="#aa989c"/>
</svg>
